<svg width="32" height="32" viewBox="0 0 32 32" fill="none" xmlns="http://www.w3.org/2000/svg">
<path d="M4.00001 16C4.00001 16.2652 4.10536 16.5196 4.2929 16.7071C4.48044 16.8947 4.73479 17 5.00001 17H24.5863L17.2925 24.2925C17.1996 24.3854 17.1259 24.4957 17.0756 24.6171C17.0253 24.7385 16.9995 24.8686 16.9995 25C16.9995 25.1314 17.0253 25.2615 17.0756 25.3829C17.1259 25.5043 17.1996 25.6146 17.2925 25.7075C17.3854 25.8004 17.4957 25.8741 17.6171 25.9244C17.7385 25.9747 17.8686 26.0006 18 26.0006C18.1314 26.0006 18.2615 25.9747 18.3829 25.9244C18.5043 25.8741 18.6146 25.8004 18.7075 25.7075L27.7075 16.7075C27.8005 16.6146 27.8742 16.5043 27.9246 16.3829C27.9749 16.2615 28.0008 16.1314 28.0008 16C28.0008 15.8686 27.9749 15.7385 27.9246 15.6171C27.8742 15.4957 27.8005 15.3854 27.7075 15.2925L18.7075 6.29251C18.5199 6.10487 18.2654 5.99945 18 5.99945C17.7346 5.99945 17.4801 6.10487 17.2925 6.29251C17.1049 6.48015 16.9995 6.73464 16.9995 7.00001C16.9995 7.26537 17.1049 7.51987 17.2925 7.70751L24.5863 15H5.00001C4.73479 15 4.48044 15.1054 4.2929 15.2929C4.10536 15.4804 4.00001 15.7348 4.00001 16Z" fill="black"/>
</svg>
